<?xml version="1.0" encoding="UTF-8"?>
<svg id="Layer_2" data-name="Layer 2" xmlns="http://www.w3.org/2000/svg" xmlns:xlink="http://www.w3.org/1999/xlink" viewBox="0 0 359.26 80.96">
  <defs>
    <style>
      .cls-1 {
        fill: url(#linear-gradient-8);
      }

      .cls-2 {
        fill: url(#linear-gradient-7);
      }

      .cls-3 {
        fill: url(#linear-gradient-5);
      }

      .cls-4 {
        fill: url(#linear-gradient-6);
      }

      .cls-5 {
        fill: url(#linear-gradient-9);
      }

      .cls-6 {
        fill: url(#linear-gradient-4);
      }

      .cls-7 {
        fill: url(#linear-gradient-3);
      }

      .cls-8 {
        fill: url(#linear-gradient-2);
      }

      .cls-9 {
        fill: url(#linear-gradient);
      }

      .cls-10 {
        fill: url(#linear-gradient-10);
      }

      .cls-11 {
        fill: url(#linear-gradient-11);
      }

      .cls-12 {
        fill: url(#linear-gradient-12);
      }

      .cls-13 {
        fill: url(#linear-gradient-13);
      }

      .cls-14 {
        fill: url(#linear-gradient-19);
      }

      .cls-15 {
        fill: url(#linear-gradient-14);
      }

      .cls-16 {
        fill: url(#linear-gradient-21);
      }

      .cls-17 {
        fill: url(#linear-gradient-20);
      }

      .cls-18 {
        fill: url(#linear-gradient-22);
      }

      .cls-19 {
        fill: url(#linear-gradient-23);
      }

      .cls-20 {
        fill: url(#linear-gradient-28);
      }

      .cls-21 {
        fill: url(#linear-gradient-25);
      }

      .cls-22 {
        fill: url(#linear-gradient-31);
      }

      .cls-23 {
        fill: url(#linear-gradient-30);
      }

      .cls-24 {
        fill: url(#linear-gradient-15);
      }

      .cls-25 {
        fill: url(#linear-gradient-16);
      }

      .cls-26 {
        fill: url(#linear-gradient-17);
      }

      .cls-27 {
        fill: url(#linear-gradient-18);
      }

      .cls-28 {
        fill: url(#linear-gradient-27);
      }

      .cls-29 {
        fill: url(#linear-gradient-24);
      }

      .cls-30 {
        fill: url(#linear-gradient-26);
      }

      .cls-31 {
        fill: url(#linear-gradient-29);
      }
    </style>
    <linearGradient id="linear-gradient" x1="-14.96" y1="-2.65" x2="-25.95" y2="62.64" gradientTransform="translate(53.47 -1.64) skewX(-9.83)" gradientUnits="userSpaceOnUse">
      <stop offset="0" stop-color="#fcd542"/>
      <stop offset="1" stop-color="#f79b1d"/>
    </linearGradient>
    <linearGradient id="linear-gradient-2" x1="210.04" y1="-2.65" x2="199.05" y2="62.64" gradientTransform="translate(53.47 -1.64) skewX(-9.83)" gradientUnits="userSpaceOnUse">
      <stop offset="0" stop-color="#f1f0f0"/>
      <stop offset="1" stop-color="#989898"/>
    </linearGradient>
    <linearGradient id="linear-gradient-3" x1="302.82" y1="26.55" x2="359.26" y2="26.55" gradientTransform="matrix(1,0,0,1,0,0)" xlink:href="#linear-gradient-2"/>
    <linearGradient id="linear-gradient-4" x1="51.84" y1="26.88" x2="99.89" y2="26.88" gradientTransform="matrix(1,0,0,1,0,0)" xlink:href="#linear-gradient"/>
    <linearGradient id="linear-gradient-5" x1="311.34" y1="-14.57" x2="281.63" y2="42.97" gradientTransform="matrix(1,0,0,1,0,0)" xlink:href="#linear-gradient-2"/>
    <linearGradient id="linear-gradient-6" x1="136" y1=".27" x2="123.49" y2="37.18" gradientTransform="matrix(1,0,0,1,0,0)" xlink:href="#linear-gradient"/>
    <linearGradient id="linear-gradient-7" x1="131.29" y1="19.64" x2="119.31" y2="54.99" gradientTransform="matrix(1,0,0,1,0,0)" xlink:href="#linear-gradient-2"/>
    <linearGradient id="linear-gradient-8" x1="116.92" y1="26.35" x2="130.17" y2="26.35" gradientTransform="matrix(1,0,0,1,0,0)" xlink:href="#linear-gradient"/>
    <linearGradient id="linear-gradient-9" x1="127.18" y1="26.35" x2="140.43" y2="26.35" gradientTransform="matrix(1,0,0,1,0,0)" xlink:href="#linear-gradient"/>
    <linearGradient id="linear-gradient-10" x1="197.85" y1="-11.74" x2="172.51" y2="72.45" gradientTransform="matrix(1,0,0,1,0,0)" xlink:href="#linear-gradient"/>
    <linearGradient id="linear-gradient-11" x1="84.17" y1="16.11" x2="87.12" y2="96.61" gradientTransform="matrix(1,0,0,1,0,0)" xlink:href="#linear-gradient-2"/>
    <linearGradient id="linear-gradient-12" x1="96.15" y1="15.67" x2="99.1" y2="96.17" gradientTransform="matrix(1,0,0,1,0,0)" xlink:href="#linear-gradient-2"/>
    <linearGradient id="linear-gradient-13" x1="108.43" y1="15.22" x2="111.38" y2="95.72" gradientTransform="matrix(1,0,0,1,0,0)" xlink:href="#linear-gradient-2"/>
    <linearGradient id="linear-gradient-14" x1="117.9" y1="14.87" x2="120.85" y2="95.37" gradientTransform="matrix(1,0,0,1,0,0)" xlink:href="#linear-gradient-2"/>
    <linearGradient id="linear-gradient-15" x1="126.51" y1="14.56" x2="129.46" y2="95.06" gradientTransform="matrix(1,0,0,1,0,0)" xlink:href="#linear-gradient-2"/>
    <linearGradient id="linear-gradient-16" x1="138.44" y1="14.12" x2="141.39" y2="94.62" gradientTransform="matrix(1,0,0,1,0,0)" xlink:href="#linear-gradient-2"/>
    <linearGradient id="linear-gradient-17" x1="149.75" y1="13.71" x2="152.7" y2="94.21" gradientTransform="matrix(1,0,0,1,0,0)" xlink:href="#linear-gradient-2"/>
    <linearGradient id="linear-gradient-18" x1="159.72" y1="13.34" x2="162.67" y2="93.84" gradientTransform="matrix(1,0,0,1,0,0)" xlink:href="#linear-gradient-2"/>
    <linearGradient id="linear-gradient-19" x1="165.81" y1="13.12" x2="168.76" y2="93.62" gradientTransform="matrix(1,0,0,1,0,0)" xlink:href="#linear-gradient-2"/>
    <linearGradient id="linear-gradient-20" x1="174.42" y1="12.8" x2="177.37" y2="93.3" gradientTransform="matrix(1,0,0,1,0,0)" xlink:href="#linear-gradient-2"/>
    <linearGradient id="linear-gradient-21" x1="186.7" y1="12.35" x2="189.65" y2="92.85" gradientTransform="matrix(1,0,0,1,0,0)" xlink:href="#linear-gradient-2"/>
    <linearGradient id="linear-gradient-22" x1="203.97" y1="11.72" x2="206.92" y2="92.22" gradientTransform="matrix(1,0,0,1,0,0)" xlink:href="#linear-gradient-2"/>
    <linearGradient id="linear-gradient-23" x1="215.44" y1="11.3" x2="218.39" y2="91.8" gradientTransform="matrix(1,0,0,1,0,0)" xlink:href="#linear-gradient-2"/>
    <linearGradient id="linear-gradient-24" x1="225.4" y1="10.93" x2="228.35" y2="91.43" gradientTransform="matrix(1,0,0,1,0,0)" xlink:href="#linear-gradient-2"/>
    <linearGradient id="linear-gradient-25" x1="234.43" y1="10.6" x2="237.38" y2="91.1" gradientTransform="matrix(1,0,0,1,0,0)" xlink:href="#linear-gradient-2"/>
    <linearGradient id="linear-gradient-26" x1="242.37" y1="10.31" x2="245.32" y2="90.81" gradientTransform="matrix(1,0,0,1,0,0)" xlink:href="#linear-gradient-2"/>
    <linearGradient id="linear-gradient-27" x1="250.22" y1="10.02" x2="253.17" y2="90.52" gradientTransform="matrix(1,0,0,1,0,0)" xlink:href="#linear-gradient-2"/>
    <linearGradient id="linear-gradient-28" x1="260.86" y1="9.63" x2="263.81" y2="90.13" gradientTransform="matrix(1,0,0,1,0,0)" xlink:href="#linear-gradient-2"/>
    <linearGradient id="linear-gradient-29" x1="271.05" y1="9.26" x2="274" y2="89.76" gradientTransform="matrix(1,0,0,1,0,0)" xlink:href="#linear-gradient-2"/>
    <linearGradient id="linear-gradient-30" x1="293.1" y1="70.92" x2="354.98" y2="70.92" gradientTransform="matrix(1,0,0,1,0,0)" xlink:href="#linear-gradient-2"/>
    <linearGradient id="linear-gradient-31" x1="4.64" y1="70.92" x2="66.51" y2="70.92" gradientTransform="matrix(1,0,0,1,0,0)" xlink:href="#linear-gradient-2"/>
  </defs>
  <g id="Layer_1-2" data-name="Layer 1">
    <g>
      <g>
        <path class="cls-9" d="M0,53.53h14.25s4.66-19.17,4.66-19.17l31.98.08,2.48-13.49-31.2-.15,2.18-8.16,29.84.19,2.15-12.29L21.19.23c-4.57-.33-10.48,2.16-12.26,10.56L0,53.53Z"/>
        <path class="cls-8" d="M225,53.53h14.25s4.66-19.17,4.66-19.17l31.98.08,2.48-13.49-31.2-.15,2.18-8.16,29.84.19,2.15-12.29-35.14-.3c-4.57-.33-10.48,2.16-12.26,10.56l-8.93,42.74Z"/>
        <polygon class="cls-7" points="305.4 0 321.55 0 332.01 15.11 343.78 0 358.24 0 339.85 26.16 359.26 53.03 343.5 53.05 331.81 36.75 320.26 53.07 302.82 53.09 323.16 26.17 305.4 0"/>
        <polygon class="cls-6" points="60.14 .05 51.84 53.71 97.52 53.35 99.89 41.12 68.28 40.94 74.6 .05 60.14 .05"/>
        <polygon class="cls-3" points="286.22 .05 279.19 53.17 293.94 53.15 301.55 .05 286.22 .05"/>
        <path class="cls-4" d="M113.44,26.61c.1-7.85,6.48-14.18,14.35-14.18s14.25,6.33,14.35,14.18h12.38C154.43,11.93,142.5.05,127.79.05s-26.64,11.88-26.73,26.56h12.38Z"/>
        <path class="cls-2" d="M142.04,28.52c-.86,7.11-6.9,12.63-14.24,12.63s-13.39-5.51-14.24-12.63h-12.43c.89,13.96,12.49,25.01,26.68,25.01s25.78-11.05,26.68-25.01h-12.43Z"/>
        <polygon class="cls-1" points="120.19 36.33 116.92 33.05 123.62 26.35 116.92 19.66 120.19 16.38 130.17 26.35 120.19 36.33"/>
        <polygon class="cls-5" points="130.46 36.33 127.18 33.05 133.88 26.35 127.18 19.66 130.46 16.38 140.43 26.35 130.46 36.33"/>
        <polygon class="cls-10" points="217.04 .04 209.7 29.73 201.55 .03 192.69 .03 183.82 .03 173.41 29.87 168.2 .04 153.99 .05 162.65 53.62 179.04 53.48 191.95 19.72 191.95 19.62 191.99 19.72 202.38 53.32 218.6 53.24 231.02 .05 217.04 .04"/>
      </g>
      <g>
        <path class="cls-11" d="M81.53,77.3v-12.75h9.31v1.99h-6.94v3.31h6.16v1.95h-6.16v3.52h7.19v1.99h-9.56Z"/>
        <path class="cls-12" d="M93.51,77.3v-9.73h2.17v1.26c.38-.45.85-.79,1.43-1.02.58-.23,1.22-.35,1.92-.35.78,0,1.47.15,2.09.46.61.3,1.1.77,1.45,1.4.35.63.53,1.43.53,2.4v5.57h-2.28v-5.28c0-.86-.2-1.51-.61-1.93-.41-.42-.97-.64-1.7-.64-.81,0-1.47.25-1.97.74-.5.49-.75,1.22-.75,2.19v4.92h-2.28Z"/>
        <path class="cls-13" d="M110.42,80.96c-.91,0-1.79-.12-2.64-.36-.85-.24-1.55-.58-2.09-1.03l1.02-1.71c.43.35.96.63,1.61.85.65.21,1.31.32,1.98.32,1.07,0,1.85-.25,2.35-.74.5-.49.75-1.23.75-2.21v-.51c-.4.44-.88.76-1.44.97-.56.21-1.17.32-1.82.32-.92,0-1.76-.2-2.5-.59-.75-.39-1.34-.94-1.77-1.65-.43-.7-.65-1.53-.65-2.48s.22-1.75.65-2.46c.43-.7,1.02-1.25,1.77-1.64.75-.39,1.58-.58,2.5-.58.68,0,1.31.11,1.89.34.58.22,1.07.58,1.48,1.07v-1.29h2.17v8.25c0,1.76-.45,3.06-1.35,3.89-.9.83-2.2,1.25-3.9,1.25ZM110.47,74.93c.86,0,1.57-.26,2.12-.77.55-.52.83-1.19.83-2.01s-.28-1.49-.83-1.99c-.55-.5-1.26-.76-2.12-.76s-1.59.25-2.14.76c-.55.5-.83,1.17-.83,1.99s.28,1.5.83,2.01c.55.52,1.27.77,2.14.77Z"/>
        <path class="cls-15" d="M119.8,65.97c-.43,0-.77-.13-1.05-.4-.27-.27-.41-.59-.41-.97s.14-.7.41-.97c.27-.27.62-.4,1.05-.4s.77.12,1.05.37c.27.25.41.56.41.94,0,.4-.14.74-.41,1.01s-.62.41-1.05.41ZM118.65,77.3v-9.73h2.28v9.73h-2.28Z"/>
        <path class="cls-24" d="M123.91,77.3v-9.73h2.17v1.26c.38-.45.85-.79,1.43-1.02s1.22-.35,1.92-.35c.78,0,1.47.15,2.09.46.61.3,1.1.77,1.45,1.4.35.63.53,1.43.53,2.4v5.57h-2.28v-5.28c0-.86-.2-1.51-.61-1.93-.41-.42-.97-.64-1.7-.64-.81,0-1.47.25-1.97.74-.5.49-.75,1.22-.75,2.19v4.92h-2.28Z"/>
        <path class="cls-25" d="M140.98,77.43c-1.08,0-2.03-.22-2.83-.65-.81-.43-1.43-1.02-1.88-1.77-.44-.75-.66-1.61-.66-2.58s.22-1.83.65-2.58c.43-.75,1.03-1.33,1.78-1.76.76-.43,1.62-.64,2.6-.64s1.79.21,2.53.62c.74.41,1.32,1,1.75,1.76.42.76.64,1.64.64,2.65,0,.1,0,.21,0,.33,0,.12-.02.24-.03.35h-7.63c.13.7.48,1.27,1.04,1.69.56.43,1.26.64,2.11.64,1.08,0,1.96-.35,2.64-1.06l1.22,1.4c-.9,1.06-2.2,1.58-3.92,1.58ZM137.86,71.65h5.52c-.1-.7-.39-1.28-.89-1.71-.5-.44-1.12-.66-1.86-.66s-1.36.22-1.86.65c-.5.43-.8,1-.91,1.72Z"/>
        <path class="cls-26" d="M152.31,77.43c-1.08,0-2.03-.22-2.83-.65-.81-.43-1.43-1.02-1.88-1.77-.44-.75-.66-1.61-.66-2.58s.22-1.83.65-2.58c.43-.75,1.03-1.33,1.78-1.76.76-.43,1.62-.64,2.6-.64s1.79.21,2.53.62,1.32,1,1.75,1.76c.42.76.64,1.64.64,2.65,0,.1,0,.21,0,.33,0,.12-.02.24-.03.35h-7.63c.13.7.48,1.27,1.04,1.69.56.43,1.26.64,2.11.64,1.08,0,1.96-.35,2.64-1.06l1.22,1.4c-.9,1.06-2.2,1.58-3.92,1.58ZM149.19,71.65h5.52c-.1-.7-.39-1.28-.89-1.71-.5-.44-1.12-.66-1.86-.66s-1.36.22-1.86.65c-.5.43-.8,1-.91,1.72Z"/>
        <path class="cls-27" d="M159.06,77.3v-9.73h2.17v1.42c.67-1.02,1.82-1.53,3.46-1.53v2.17c-.1-.01-.19-.02-.27-.04s-.17-.02-.26-.02c-.86,0-1.55.25-2.06.76-.51.5-.76,1.25-.76,2.25v4.72h-2.28Z"/>
        <path class="cls-14" d="M167.77,65.97c-.43,0-.77-.13-1.05-.4-.27-.27-.41-.59-.41-.97s.14-.7.41-.97c.27-.27.62-.4,1.05-.4s.77.12,1.05.37c.27.25.41.56.41.94,0,.4-.14.74-.41,1.01s-.62.41-1.05.41ZM166.62,77.3v-9.73h2.28v9.73h-2.28Z"/>
        <path class="cls-17" d="M171.89,77.3v-9.73h2.17v1.26c.38-.45.85-.79,1.43-1.02s1.22-.35,1.92-.35c.78,0,1.47.15,2.09.46.61.3,1.1.77,1.45,1.4.35.63.53,1.43.53,2.4v5.57h-2.28v-5.28c0-.86-.2-1.51-.61-1.93-.41-.42-.97-.64-1.7-.64-.81,0-1.47.25-1.97.74-.5.49-.75,1.22-.75,2.19v4.92h-2.28Z"/>
        <path class="cls-16" d="M188.79,80.96c-.91,0-1.79-.12-2.64-.36-.85-.24-1.55-.58-2.09-1.03l1.02-1.71c.43.35.96.63,1.61.85.65.21,1.31.32,1.98.32,1.07,0,1.85-.25,2.35-.74.5-.49.75-1.23.75-2.21v-.51c-.4.44-.88.76-1.44.97-.56.21-1.17.32-1.82.32-.92,0-1.76-.2-2.5-.59-.75-.39-1.34-.94-1.77-1.65-.43-.7-.65-1.53-.65-2.48s.22-1.75.65-2.46c.43-.7,1.02-1.25,1.77-1.64.75-.39,1.58-.58,2.5-.58.68,0,1.31.11,1.89.34.58.22,1.07.58,1.48,1.07v-1.29h2.17v8.25c0,1.76-.45,3.06-1.35,3.89-.9.83-2.2,1.25-3.9,1.25ZM188.85,74.93c.86,0,1.57-.26,2.12-.77.55-.52.83-1.19.83-2.01s-.28-1.49-.83-1.99c-.55-.5-1.26-.76-2.12-.76s-1.59.25-2.14.76c-.55.5-.83,1.17-.83,1.99s.28,1.5.83,2.01c.55.52,1.27.77,2.14.77Z"/>
        <path class="cls-18" d="M206.22,77.48c-1,0-1.95-.14-2.86-.43-.91-.29-1.63-.65-2.17-1.1l.82-1.84c.51.41,1.14.75,1.89,1.01.75.26,1.52.39,2.31.39,1,0,1.71-.16,2.16-.47.44-.32.66-.71.66-1.18,0-.39-.14-.7-.41-.94-.27-.24-.63-.43-1.08-.56-.45-.14-.94-.27-1.48-.39-.54-.12-1.08-.26-1.62-.43-.54-.16-1.04-.38-1.48-.64-.45-.26-.81-.61-1.08-1.05-.27-.44-.41-1-.41-1.68s.18-1.33.56-1.9c.37-.58.94-1.04,1.69-1.38.76-.35,1.72-.52,2.89-.52.76,0,1.52.1,2.28.29.75.19,1.41.47,1.97.84l-.75,1.84c-.57-.34-1.16-.59-1.77-.76-.61-.16-1.19-.25-1.75-.25-.98,0-1.69.17-2.12.51-.43.34-.65.75-.65,1.22,0,.39.14.7.41.93.27.23.63.42,1.08.56.45.15.94.28,1.48.39.54.12,1.08.25,1.61.41.53.16,1.03.37,1.48.64.45.27.81.62,1.08,1.05.27.43.41.98.41,1.65s-.19,1.31-.56,1.89c-.37.58-.94,1.04-1.7,1.38-.76.35-1.73.52-2.9.52Z"/>
        <path class="cls-19" d="M218.08,77.43c-1.08,0-2.03-.22-2.83-.65-.81-.43-1.43-1.02-1.88-1.77-.44-.75-.66-1.61-.66-2.58s.22-1.83.65-2.58c.43-.75,1.03-1.33,1.78-1.76.76-.43,1.62-.64,2.6-.64s1.79.21,2.53.62c.74.41,1.32,1,1.75,1.76.42.76.64,1.64.64,2.65,0,.1,0,.21,0,.33,0,.12-.02.24-.03.35h-7.63c.13.7.48,1.27,1.04,1.69.56.43,1.26.64,2.11.64,1.08,0,1.96-.35,2.64-1.06l1.22,1.4c-.9,1.06-2.2,1.58-3.92,1.58ZM214.96,71.65h5.52c-.1-.7-.39-1.28-.89-1.71-.5-.44-1.12-.66-1.86-.66s-1.36.22-1.86.65c-.5.43-.8,1-.91,1.72Z"/>
        <path class="cls-29" d="M224.84,77.3v-9.73h2.17v1.42c.67-1.02,1.82-1.53,3.46-1.53v2.17c-.1-.01-.19-.02-.27-.04-.09-.01-.17-.02-.26-.02-.86,0-1.55.25-2.06.76-.51.5-.76,1.25-.76,2.25v4.72h-2.28Z"/>
        <path class="cls-21" d="M235.35,77.3l-4.17-9.73h2.37l3.02,7.21,3.11-7.21h2.19l-4.17,9.73h-2.35Z"/>
        <path class="cls-30" d="M244.43,65.97c-.43,0-.77-.13-1.05-.4-.27-.27-.41-.59-.41-.97s.14-.7.41-.97c.27-.27.62-.4,1.05-.4s.77.12,1.05.37c.27.25.41.56.41.94,0,.4-.14.74-.41,1.01s-.62.41-1.05.41ZM243.29,77.3v-9.73h2.28v9.73h-2.28Z"/>
        <path class="cls-28" d="M253.01,77.43c-1.02,0-1.93-.22-2.72-.65-.8-.43-1.42-1.02-1.87-1.77-.45-.75-.67-1.61-.67-2.58s.22-1.83.67-2.58c.45-.75,1.07-1.33,1.87-1.76.8-.43,1.7-.64,2.72-.64.95,0,1.78.19,2.5.57.72.38,1.27.94,1.65,1.68l-1.75,1.02c-.29-.46-.65-.8-1.07-1.02s-.87-.33-1.36-.33c-.84,0-1.54.27-2.1.82-.57.55-.85,1.29-.85,2.22s.28,1.69.85,2.23c.56.54,1.27.81,2.1.81.49,0,.94-.11,1.36-.33s.77-.56,1.07-1.02l1.75,1.02c-.38.73-.93,1.29-1.65,1.69-.72.39-1.56.59-2.5.59Z"/>
        <path class="cls-20" d="M263.56,77.43c-1.08,0-2.02-.22-2.83-.65-.81-.43-1.43-1.02-1.88-1.77-.44-.75-.66-1.61-.66-2.58s.22-1.83.65-2.58c.43-.75,1.03-1.33,1.78-1.76.76-.43,1.62-.64,2.6-.64s1.79.21,2.53.62c.74.41,1.32,1,1.75,1.76.42.76.64,1.64.64,2.65,0,.1,0,.21,0,.33,0,.12-.02.24-.03.35h-7.63c.13.7.48,1.27,1.04,1.69.56.43,1.26.64,2.11.64,1.08,0,1.96-.35,2.64-1.06l1.22,1.4c-.9,1.06-2.2,1.58-3.92,1.58ZM260.44,71.65h5.52c-.1-.7-.39-1.28-.89-1.71-.5-.44-1.12-.66-1.86-.66s-1.36.22-1.86.65c-.5.43-.8,1-.91,1.72Z"/>
        <path class="cls-31" d="M273.32,77.43c-.81,0-1.59-.1-2.34-.31-.75-.21-1.34-.47-1.78-.78l.87-1.73c.42.29.94.53,1.56.7.61.18,1.22.26,1.83.26.73,0,1.25-.1,1.57-.29.32-.19.47-.46.47-.78s-.15-.54-.44-.68c-.29-.14-.66-.25-1.12-.32-.46-.07-.94-.15-1.45-.24-.51-.09-.99-.22-1.45-.4-.46-.18-.83-.46-1.12-.83-.29-.37-.44-.88-.44-1.52,0-.92.39-1.66,1.16-2.21.77-.55,1.81-.83,3.12-.83.64,0,1.3.07,1.98.22.67.15,1.23.35,1.67.62l-.87,1.73c-.46-.27-.93-.46-1.39-.56-.47-.11-.93-.16-1.39-.16-.69,0-1.21.1-1.54.31-.33.21-.5.47-.5.78s.15.57.44.73c.29.16.66.27,1.12.35.46.07.94.15,1.45.25.51.09.99.23,1.45.41s.83.45,1.12.81c.29.36.44.85.44,1.48,0,.91-.39,1.64-1.18,2.19-.79.55-1.86.82-3.22.82Z"/>
      </g>
      <rect class="cls-23" x="293.1" y="69.87" width="61.88" height="2.11"/>
      <rect class="cls-22" x="4.64" y="69.87" width="61.88" height="2.11"/>
    </g>
  </g>
</svg>